<svg xmlns="http://www.w3.org/2000/svg" viewBox="0 0 600 320" width="100%" height="100%" style="background:#0b0f19;">
    <defs>
      <linearGradient id="nandGlow" x1="0%" y1="0%" x2="100%" y2="0%">
        <stop offset="0%" stop-color="#10b981" />
        <stop offset="100%" stop-color="#34d399" />
      </linearGradient>
      <filter id="glow" x="-20%" y="-20%" width="140%" height="140%">
        <feGaussianBlur stdDeviation="6" result="blur" />
        <feComposite in="SourceGraphic" in2="blur" operator="over" />
      </filter>
    </defs>
    <rect width="600" height="320" fill="#0b0f19" />
    <path d="M 0 40 L 600 40 M 0 80 L 600 80 M 0 120 L 600 120 M 0 160 L 600 160 M 0 200 L 600 200 M 0 240 L 600 240 M 0 280 L 600 280" stroke="#1e293b" stroke-width="1" />
    
    <line x1="80" y1="110" x2="220" y2="110" stroke="#10b981" stroke-width="5" filter="url(#glow)" />
    <text x="55" y="117" font-family="sans-serif" font-size="24" font-weight="bold" fill="#a7f3d0">A</text>
    
    <line x1="80" y1="210" x2="220" y2="210" stroke="#10b981" stroke-width="5" filter="url(#glow)" />
    <text x="55" y="217" font-family="sans-serif" font-size="24" font-weight="bold" fill="#a7f3d0">B</text>

    <path d="M 220,80 L 300,80 A 80,80 0 0,1 300,240 L 220,240 Z" fill="#0f172a" stroke="url(#nandGlow)" stroke-width="6" filter="url(#glow)" />
    <circle cx="392" cy="160" r="12" fill="#0f172a" stroke="#10b981" stroke-width="5" filter="url(#glow)" />

    <line x1="404" y1="160" x2="490" y2="160" stroke="#10b981" stroke-width="5" filter="url(#glow)" />
    <text x="515" y="167" font-family="sans-serif" font-size="24" font-weight="bold" fill="#a7f3d0">Y</text>
  </svg>